# xmcd
#
# Track frame offsets: 
#        150
#        21561
#        36983
#        63121
#        79806
#        95146
#        105136
#        120969
#        137490
#        160714
#        181720
#
# Disc length: 2821 seconds
#
# Revision: 0
# Processed by: cddbd v1.5.2PL0 Copyright (c) Steve Scherf et al.
# Submitted via: ExactAudioCopy v0.95b4
#
DISCID=7e0b030b
DTITLE=Kevin - Bad Dream Stone Mystery
DYEAR=2006
DGENRE=Classic Rock
TTITLE0=The World Outside The Window
TTITLE1=You Get What I'm Feeling
TTITLE2=Töölönlahti
TTITLE3=Big City
TTITLE4=Midnite Dynamos
TTITLE5=Smoke
TTITLE6=Me and Mine
TTITLE7=Witching Hour
TTITLE8=Raven
TTITLE9=Crystal Ball
TTITLE10=Lovelight Suite - I. Mirage, II. Windswept
EXTD=
EXTT0=
EXTT1=
EXTT2=
EXTT3=
EXTT4=
EXTT5=
EXTT6=
EXTT7=
EXTT8=
EXTT9=
EXTT10=
PLAYORDER=
